<mxfile host="app.diagrams.net" modified="2023-08-30T00:39:30.110Z" agent="Mozilla/5.0 (Windows NT 10.0; Win64; x64) AppleWebKit/537.36 (KHTML, like Gecko) Chrome/116.0.0.0 Safari/537.36" etag="KzifD4X5vx5nqwWypDqg" version="21.7.0" type="github">
  <diagram name="Page-1" id="fUX4Cxz-lSoH740YWGFB">
    <mxGraphModel dx="9" dy="6" grid="1" gridSize="10" guides="1" tooltips="1" connect="1" arrows="1" fold="1" page="1" pageScale="1" pageWidth="827" pageHeight="1169" math="0" shadow="0">
      <root>
        <mxCell id="0" />
        <mxCell id="1" parent="0" />
        <mxCell id="axN_E5OJs1UjX3GLZ8zh-2" value="desktop" style="sketch=0;outlineConnect=0;gradientColor=none;fontColor=#545B64;strokeColor=none;fillColor=#879196;dashed=0;verticalLabelPosition=bottom;verticalAlign=top;align=center;html=1;fontSize=12;fontStyle=0;aspect=fixed;shape=mxgraph.aws4.illustration_desktop;pointerEvents=1" vertex="1" parent="1">
          <mxGeometry x="414" y="10" width="54.95" height="50" as="geometry" />
        </mxCell>
        <mxCell id="axN_E5OJs1UjX3GLZ8zh-8" value="Firewall" style="image;aspect=fixed;html=1;points=[];align=center;fontSize=12;image=img/lib/azure2/networking/Firewalls.svg;" vertex="1" parent="1">
          <mxGeometry x="414" y="130" width="59.17" height="50" as="geometry" />
        </mxCell>
        <mxCell id="axN_E5OJs1UjX3GLZ8zh-9" value="Firewalll" style="image;aspect=fixed;html=1;points=[];align=center;fontSize=12;image=img/lib/azure2/networking/Firewalls.svg;" vertex="1" parent="1">
          <mxGeometry x="414" y="420" width="59.16" height="50" as="geometry" />
        </mxCell>
        <mxCell id="axN_E5OJs1UjX3GLZ8zh-10" value="Router" style="image;html=1;image=img/lib/clip_art/networking/Router_128x128.png" vertex="1" parent="1">
          <mxGeometry x="414" y="220" width="50" height="50" as="geometry" />
        </mxCell>
        <mxCell id="axN_E5OJs1UjX3GLZ8zh-11" value="web server" style="image;aspect=fixed;perimeter=ellipsePerimeter;html=1;align=center;shadow=0;dashed=0;spacingTop=3;image=img/lib/active_directory/web_server.svg;" vertex="1" parent="1">
          <mxGeometry x="510" y="1020" width="40" height="50" as="geometry" />
        </mxCell>
        <mxCell id="axN_E5OJs1UjX3GLZ8zh-12" value="web server" style="image;aspect=fixed;perimeter=ellipsePerimeter;html=1;align=center;shadow=0;dashed=0;spacingTop=3;image=img/lib/active_directory/web_server.svg;" vertex="1" parent="1">
          <mxGeometry x="434.95000000000005" y="1050" width="40" height="50" as="geometry" />
        </mxCell>
        <mxCell id="axN_E5OJs1UjX3GLZ8zh-13" value="web server" style="image;aspect=fixed;perimeter=ellipsePerimeter;html=1;align=center;shadow=0;dashed=0;spacingTop=3;image=img/lib/active_directory/web_server.svg;" vertex="1" parent="1">
          <mxGeometry x="374" y="1020" width="40" height="50" as="geometry" />
        </mxCell>
        <mxCell id="axN_E5OJs1UjX3GLZ8zh-15" value="database" style="image;aspect=fixed;perimeter=ellipsePerimeter;html=1;align=center;shadow=0;dashed=0;spacingTop=3;image=img/lib/active_directory/database.svg;" vertex="1" parent="1">
          <mxGeometry x="419" y="960" width="50" height="37" as="geometry" />
        </mxCell>
        <mxCell id="axN_E5OJs1UjX3GLZ8zh-16" value="Traditional&#xa;server" style="sketch=0;outlineConnect=0;fontColor=#232F3E;gradientColor=none;strokeColor=#232F3E;fillColor=#ffffff;dashed=0;verticalLabelPosition=bottom;verticalAlign=top;align=center;html=1;fontSize=12;fontStyle=0;aspect=fixed;shape=mxgraph.aws4.resourceIcon;resIcon=mxgraph.aws4.traditional_server;" vertex="1" parent="1">
          <mxGeometry x="419" y="320" width="40" height="40" as="geometry" />
        </mxCell>
        <mxCell id="axN_E5OJs1UjX3GLZ8zh-17" value="domain controller" style="image;aspect=fixed;perimeter=ellipsePerimeter;html=1;align=center;shadow=0;dashed=0;spacingTop=3;image=img/lib/active_directory/domain_controller.svg;" vertex="1" parent="1">
          <mxGeometry x="429" y="870" width="35" height="50" as="geometry" />
        </mxCell>
        <mxCell id="axN_E5OJs1UjX3GLZ8zh-19" value="server" style="image;html=1;image=img/lib/clip_art/computers/Server_128x128.png" vertex="1" parent="1">
          <mxGeometry x="354.95" y="770" width="80" height="80" as="geometry" />
        </mxCell>
        <mxCell id="axN_E5OJs1UjX3GLZ8zh-20" value="server" style="image;html=1;image=img/lib/clip_art/computers/Server_128x128.png" vertex="1" parent="1">
          <mxGeometry x="80" y="770" width="80" height="80" as="geometry" />
        </mxCell>
        <mxCell id="axN_E5OJs1UjX3GLZ8zh-21" value="workstation" style="image;html=1;image=img/lib/clip_art/computers/Workstation_128x128.png" vertex="1" parent="1">
          <mxGeometry x="230" y="610" width="80" height="80" as="geometry" />
        </mxCell>
        <mxCell id="axN_E5OJs1UjX3GLZ8zh-23" value="" style="endArrow=none;html=1;rounded=0;" edge="1" parent="1" target="axN_E5OJs1UjX3GLZ8zh-21">
          <mxGeometry width="50" height="50" relative="1" as="geometry">
            <mxPoint x="260" y="660" as="sourcePoint" />
            <mxPoint x="320" y="640" as="targetPoint" />
          </mxGeometry>
        </mxCell>
        <mxCell id="axN_E5OJs1UjX3GLZ8zh-26" value="workstation" style="image;html=1;image=img/lib/clip_art/computers/Workstation_128x128.png" vertex="1" parent="1">
          <mxGeometry x="570" y="620" width="80" height="80" as="geometry" />
        </mxCell>
        <mxCell id="axN_E5OJs1UjX3GLZ8zh-27" value="server" style="image;html=1;image=img/lib/clip_art/computers/Server_128x128.png" vertex="1" parent="1">
          <mxGeometry x="670" y="770" width="80" height="80" as="geometry" />
        </mxCell>
        <mxCell id="axN_E5OJs1UjX3GLZ8zh-28" value="server" style="image;html=1;image=img/lib/clip_art/computers/Server_128x128.png" vertex="1" parent="1">
          <mxGeometry x="470" y="770" width="80" height="80" as="geometry" />
        </mxCell>
        <mxCell id="axN_E5OJs1UjX3GLZ8zh-29" value="LAN&lt;br&gt;" style="image;html=1;image=img/lib/clip_art/networking/Cloud_128x128.png" vertex="1" parent="1">
          <mxGeometry x="414" y="520" width="80" height="80" as="geometry" />
        </mxCell>
      </root>
    </mxGraphModel>
  </diagram>
</mxfile>
